<svg width="64" height="64" viewBox="0 0 64 64" fill="none" xmlns="http://www.w3.org/2000/svg">
<g clip-path="url(#clip0_1157_625)">
<path d="M32 31.9998C35.1645 31.9998 38.2579 31.0614 40.8891 29.3033C43.5203 27.5452 45.5711 25.0464 46.7821 22.1228C47.9931 19.1991 48.3099 15.9821 47.6926 12.8784C47.0752 9.77468 45.5514 6.92376 43.3137 4.68612C41.0761 2.44848 38.2251 0.924623 35.1214 0.30726C32.0177 -0.310104 28.8007 0.00674947 25.8771 1.21775C22.9534 2.42875 20.4546 4.47951 18.6965 7.1107C16.9384 9.74189 16 12.8353 16 15.9998C16.0042 20.242 17.6913 24.3092 20.691 27.3089C23.6906 30.3085 27.7578 31.9956 32 31.9998ZM32 5.33316C34.1097 5.33316 36.172 5.95875 37.9261 7.13082C39.6802 8.30288 41.0474 9.96879 41.8547 11.9179C42.6621 13.8669 42.8733 16.0117 42.4617 18.0808C42.0501 20.1499 41.0342 22.0505 39.5425 23.5423C38.0507 25.0341 36.1501 26.05 34.081 26.4615C32.0118 26.8731 29.8671 26.6619 27.918 25.8545C25.969 25.0472 24.3031 23.68 23.131 21.9259C21.9589 20.1718 21.3333 18.1095 21.3333 15.9998C21.3333 13.1708 22.4571 10.4577 24.4575 8.45735C26.4579 6.45696 29.171 5.33316 32 5.33316Z" fill="#C7C7C7"/>
<path d="M32 37.335C25.637 37.342 19.5366 39.8728 15.0372 44.3722C10.5379 48.8715 8.00706 54.9719 8 61.335C8 62.0422 8.28095 62.7205 8.78105 63.2206C9.28115 63.7207 9.95942 64.0016 10.6667 64.0016C11.3739 64.0016 12.0522 63.7207 12.5523 63.2206C13.0524 62.7205 13.3333 62.0422 13.3333 61.335C13.3333 56.3843 15.3 51.6363 18.8007 48.1356C22.3014 44.635 27.0493 42.6683 32 42.6683C36.9507 42.6683 41.6986 44.635 45.1993 48.1356C48.7 51.6363 50.6667 56.3843 50.6667 61.335C50.6667 62.0422 50.9476 62.7205 51.4477 63.2206C51.9478 63.7207 52.6261 64.0016 53.3333 64.0016C54.0406 64.0016 54.7189 63.7207 55.219 63.2206C55.7191 62.7205 56 62.0422 56 61.335C55.9929 54.9719 53.4621 48.8715 48.9628 44.3722C44.4634 39.8728 38.363 37.342 32 37.335Z" fill="#C7C7C7"/>
</g>
<defs>
<clipPath id="clip0_1157_625">
<rect width="64" height="64" fill="white"/>
</clipPath>
</defs>
</svg>
