<svg width="64" height="65" viewBox="0 0 64 65" fill="none" xmlns="http://www.w3.org/2000/svg">
<g clip-path="url(#clip0_1428_738)">
<path d="M27.3741 30.9572C26.9836 31.3478 26.3504 31.3478 25.9599 30.9572C25.5694 30.5667 25.5694 29.9335 25.9599 29.543L31.2932 24.2097C31.6837 23.8192 32.3169 23.8192 32.7074 24.2097L38.0408 29.543C38.4313 29.9335 38.4313 30.5667 38.0408 30.9572C37.6502 31.3478 37.0171 31.3478 36.6266 30.9572L33.0003 27.331V40.2501C33.0003 40.8024 32.5526 41.2501 32.0003 41.2501C31.448 41.2501 31.0003 40.8024 31.0003 40.2501V27.331L27.3741 30.9572Z" fill="white"/>
</g>
<defs>
<clipPath id="clip0_1428_738">
<rect width="45.2548" height="45.2548" fill="white" transform="translate(0 32.9167) rotate(-45)"/>
</clipPath>
</defs>
</svg>
