<svg width="24" height="25" viewBox="0 0 24 25" fill="none" xmlns="http://www.w3.org/2000/svg">
<g clip-path="url(#clip0_1406_1304)">
<path d="M4.75 2.375C3.57639 2.375 2.625 3.32639 2.625 4.5C2.625 5.6736 3.57639 6.625 4.75 6.625C5.9236 6.625 6.875 5.6736 6.875 4.5C6.875 3.32639 5.9236 2.375 4.75 2.375Z" fill="white"/>
<path d="M2.75 8.375C2.68096 8.375 2.625 8.43096 2.625 8.5V21.5C2.625 21.569 2.68096 21.625 2.75 21.625H6.75C6.81904 21.625 6.875 21.569 6.875 21.5V8.5C6.875 8.43096 6.81904 8.375 6.75 8.375H2.75Z" fill="white"/>
<path d="M9.25 8.375C9.18096 8.375 9.125 8.43096 9.125 8.5V21.5C9.125 21.569 9.18096 21.625 9.25 21.625H13.25C13.319 21.625 13.375 21.569 13.375 21.5V14.5C13.375 14.0027 13.5725 13.5258 13.9242 13.1742C14.2758 12.8225 14.7527 12.625 15.25 12.625C15.7473 12.625 16.2242 12.8225 16.5758 13.1742C16.9275 13.5258 17.125 14.0027 17.125 14.5V21.5C17.125 21.569 17.181 21.625 17.25 21.625H21.25C21.319 21.625 21.375 21.569 21.375 21.5V12.8802C21.375 10.4535 19.2644 8.55499 16.8498 8.7745C16.1052 8.84219 15.369 9.02731 14.6815 9.32194L13.375 9.88186V8.5C13.375 8.43096 13.319 8.375 13.25 8.375H9.25Z" fill="white"/>
</g>
<defs>
<clipPath id="clip0_1406_1304">
<rect width="24" height="24" fill="white" transform="translate(0 0.5)"/>
</clipPath>
</defs>
</svg>
