<svg width="24" height="25" viewBox="0 0 24 25" fill="none" xmlns="http://www.w3.org/2000/svg">
<g clip-path="url(#clip0_1406_1305)">
<path d="M21.8107 6.72724C21.8687 6.64647 21.7831 6.54218 21.6904 6.57811C21.0317 6.83344 20.3432 7.00571 19.641 7.0906C20.4229 6.62348 21.0263 5.9124 21.3609 5.07053C21.395 4.98477 21.3013 4.90819 21.2205 4.9528C20.4938 5.35414 19.71 5.64313 18.8959 5.80957C18.8618 5.81654 18.8267 5.80494 18.8028 5.77969C18.1918 5.13502 17.3876 4.70578 16.5108 4.55745C15.6157 4.40601 14.6955 4.55596 13.8948 4.98379C13.094 5.41162 12.4579 6.09313 12.0862 6.92144C11.7328 7.709 11.6375 8.58691 11.8118 9.43003C11.8253 9.49545 11.7741 9.55721 11.7074 9.55307C10.1234 9.45469 8.57567 9.03336 7.15966 8.31446C5.74725 7.59739 4.49652 6.59983 3.48364 5.3833C3.43869 5.32931 3.35349 5.33629 3.32074 5.39845C3.00557 5.99651 2.84056 6.66311 2.841 7.3406C2.83972 8.01498 3.00522 8.67922 3.32276 9.27416C3.6403 9.86911 4.10002 10.3763 4.661 10.7506C4.06608 10.7344 3.48275 10.5873 2.95225 10.3207C2.88389 10.2863 2.80188 10.3352 2.80543 10.4117C2.8468 11.3009 3.17326 12.1936 3.73832 12.8786C4.33964 13.6074 5.17426 14.1062 6.101 14.2906C5.74426 14.3992 5.37388 14.4564 5.001 14.4606C4.79806 14.4582 4.59552 14.4433 4.39454 14.4158C4.32002 14.4056 4.25917 14.4764 4.28526 14.5469C4.56168 15.2944 5.05 15.9467 5.69208 16.4228C6.37853 16.9318 7.20658 17.2142 8.06101 17.2306C6.61821 18.3659 4.83689 18.9855 3.001 18.9906C2.81236 18.9912 2.6238 18.9851 2.43569 18.9723C2.32968 18.9651 2.28092 19.1063 2.3723 19.1605C4.16107 20.2221 6.20559 20.7831 8.291 20.7806C9.8307 20.7966 11.3581 20.5056 12.7841 19.9247C14.2101 19.3437 15.506 18.4845 16.5962 17.3971C17.6864 16.3097 18.549 15.016 19.1336 13.5915C19.7182 12.167 20.013 10.6403 20.001 9.1006V8.62077C20.001 8.5892 20.0159 8.55951 20.0411 8.54048C20.7194 8.02834 21.3159 7.41691 21.8107 6.72724Z" fill="white"/>
</g>
<defs>
<clipPath id="clip0_1406_1305">
<rect width="24" height="24" fill="white" transform="translate(0 0.5)"/>
</clipPath>
</defs>
</svg>
