<svg width="24" height="25" viewBox="0 0 24 25" fill="none" xmlns="http://www.w3.org/2000/svg">
<g clip-path="url(#clip0_1406_1306)">
<path d="M12.0007 9.25005C10.2057 9.25005 8.75067 10.7051 8.75067 12.5C8.75067 14.295 10.2057 15.75 12.0007 15.75C13.7956 15.75 15.2507 14.295 15.2507 12.5C15.2507 10.7051 13.7956 9.25005 12.0007 9.25005Z" fill="white"/>
<path fill-rule="evenodd" clip-rule="evenodd" d="M6.77021 3.58151C10.2183 3.19614 13.783 3.19614 17.2312 3.58151C19.1296 3.79369 20.6607 5.28947 20.8836 7.19452C21.2958 10.7195 21.2958 14.2806 20.8836 17.8056C20.6607 19.7106 19.1296 21.2064 17.2312 21.4186C13.783 21.804 10.2183 21.804 6.77021 21.4186C4.87181 21.2064 3.34062 19.7106 3.1178 17.8056C2.70552 14.2806 2.70552 10.7195 3.1178 7.19452C3.34062 5.28947 4.87181 3.79369 6.77021 3.58151ZM17.0007 6.50005C16.4484 6.50005 16.0007 6.94776 16.0007 7.50005C16.0007 8.05233 16.4484 8.50005 17.0007 8.50005C17.553 8.50005 18.0007 8.05233 18.0007 7.50005C18.0007 6.94776 17.553 6.50005 17.0007 6.50005ZM7.25067 12.5C7.25067 9.87669 9.37732 7.75005 12.0007 7.75005C14.624 7.75005 16.7507 9.87669 16.7507 12.5C16.7507 15.1234 14.624 17.25 12.0007 17.25C9.37732 17.25 7.25067 15.1234 7.25067 12.5Z" fill="white"/>
</g>
<defs>
<clipPath id="clip0_1406_1306">
<rect width="24" height="24" fill="white" transform="translate(0 0.5)"/>
</clipPath>
</defs>
</svg>
